<?xml version="1.0" standalone="no"?>
<!DOCTYPE svg PUBLIC "-//W3C//DTD SVG 20010904//EN"
 "http://www.w3.org/TR/2001/REC-SVG-20010904/DTD/svg10.dtd">
<svg version="1.0" xmlns="http://www.w3.org/2000/svg"
 width="678.739527pt" height="723.714517pt" viewBox="0 0 678.739527 723.714517"
 preserveAspectRatio="xMidYMid meet">
<metadata>
Created by potrace 1.16, written by Peter Selinger 2001-2019
</metadata>
<g transform="translate(-589.760473,1177.299159) scale(0.100000,-0.100000)"
fill="#000000" stroke="none">
<path d="M6944 11770 c-721 -6 -668 2 -678 -94 -10 -93 -13 -910 -4 -937 5
-14 19 -31 31 -38 16 -8 622 -12 2423 -14 2548 -2 2434 0 2434 -46 0 -9 -75
-119 -166 -246 -91 -126 -207 -290 -257 -364 -51 -74 -175 -254 -276 -400
-101 -146 -238 -345 -304 -441 -66 -96 -161 -231 -212 -300 -51 -69 -144 -202
-207 -295 -63 -94 -169 -245 -235 -335 -66 -91 -133 -185 -149 -210 -39 -61
-190 -276 -230 -325 -40 -51 -351 -502 -428 -620 -32 -49 -84 -123 -115 -165
-183 -242 -443 -626 -439 -649 7 -34 27 -28 466 127 62 22 122 48 134 58 11
11 53 57 92 104 39 47 123 141 186 210 63 69 167 186 231 260 64 74 155 178
203 230 49 52 143 163 211 245 68 83 176 209 240 280 65 72 164 186 220 255
56 69 140 166 186 215 46 50 163 180 259 290 180 207 192 220 531 595 326 362
359 399 464 520 54 63 165 187 245 275 80 88 188 207 240 265 329 369 420 468
526 568 l119 112 -3 407 c-3 438 -4 446 -55 458 -30 7 -4894 11 -5683 5z"/>
<path d="M10315 9982 c-22 -10 -105 -41 -185 -67 l-145 -49 -84 -80 c-46 -45
-145 -151 -220 -236 -75 -85 -206 -227 -291 -315 -86 -88 -191 -200 -235 -250
-44 -49 -136 -148 -205 -220 -69 -71 -189 -202 -267 -290 -78 -88 -169 -187
-203 -220 -34 -33 -149 -157 -256 -275 -191 -212 -256 -283 -663 -715 -114
-121 -256 -274 -316 -340 -60 -66 -152 -165 -205 -220 -52 -55 -140 -152 -194
-215 -89 -105 -240 -266 -735 -785 -94 -99 -180 -198 -190 -220 -18 -37 -20
-69 -22 -465 -3 -457 -3 -460 48 -478 38 -12 6635 -5 6669 8 52 20 53 38 51
546 -2 497 -2 499 -50 526 -18 10 -531 13 -2586 15 -1410 1 -2575 4 -2588 8
-36 9 -31 56 10 102 35 39 150 198 227 313 24 36 87 124 140 195 53 72 131
182 175 245 43 63 111 158 150 210 39 52 111 154 160 225 49 72 153 218 230
325 78 107 213 299 302 425 150 215 208 298 415 600 85 125 146 210 398 555
318 436 421 583 630 899 91 138 140 221 138 235 -4 28 -51 32 -103 8z"/>
</g>
</svg>
